<svg xmlns="http://www.w3.org/2000/svg" viewBox="0 0 32 32" fill="none">
  <!-- Cloud body -->
  <path d="M8 20a4 4 0 0 1-.5-7.97A7 7 0 0 1 21.5 11a5.5 5.5 0 0 1 .5 10.97L8 22z" fill="#646cff" opacity="0.9"/>
  <!-- Chip -->
  <rect x="12" y="14" width="8" height="8" rx="1" fill="#fff" opacity="0.95"/>
  <rect x="13.5" y="15.5" width="5" height="5" rx="0.5" fill="#646cff"/>
  <!-- Chip pins -->
  <line x1="14" y1="14" x2="14" y2="12.5" stroke="#646cff" stroke-width="0.8" stroke-linecap="round"/>
  <line x1="16" y1="14" x2="16" y2="12.5" stroke="#646cff" stroke-width="0.8" stroke-linecap="round"/>
  <line x1="18" y1="14" x2="18" y2="12.5" stroke="#646cff" stroke-width="0.8" stroke-linecap="round"/>
  <line x1="14" y1="22" x2="14" y2="23.5" stroke="#646cff" stroke-width="0.8" stroke-linecap="round"/>
  <line x1="16" y1="22" x2="16" y2="23.5" stroke="#646cff" stroke-width="0.8" stroke-linecap="round"/>
  <line x1="18" y1="22" x2="18" y2="23.5" stroke="#646cff" stroke-width="0.8" stroke-linecap="round"/>
  <!-- Signal waves -->
  <path d="M23 11a3 3 0 0 1 0 4" stroke="#646cff" stroke-width="0.8" stroke-linecap="round" opacity="0.7"/>
  <path d="M25 9.5a5.5 5.5 0 0 1 0 7" stroke="#646cff" stroke-width="0.8" stroke-linecap="round" opacity="0.5"/>
</svg>
