<svg width="24" height="24" viewBox="0 0 24 24" fill="none" xmlns="http://www.w3.org/2000/svg">
  <path d="M10 13C10.87 14.06 12.09 14.72 13.43 14.86C14.77 15 16.11 14.6 17.18 13.76L20.18 10.76C21.15 9.67 21.66 8.23 21.59 6.76C21.52 5.29 20.87 3.9 19.8 2.91C18.73 1.92 17.32 1.39 15.86 1.45C14.4 1.51 13.01 2.16 12 3.23L10.5 4.76" stroke="currentColor" stroke-width="2" stroke-linecap="round" stroke-linejoin="round"/>
  <path d="M14 11C13.13 9.94 11.91 9.28 10.57 9.14C9.23 9 7.89 9.4 6.82 10.24L3.82 13.24C2.85 14.33 2.34 15.77 2.41 17.24C2.48 18.71 3.13 20.1 4.2 21.09C5.27 22.08 6.68 22.61 8.14 22.55C9.6 22.49 10.99 21.84 12 20.77L13.5 19.24" stroke="currentColor" stroke-width="2" stroke-linecap="round" stroke-linejoin="round"/>
</svg>
